<svg id="svg" version="1.1" xmlns="http://www.w3.org/2000/svg" xmlns:xlink="http://www.w3.org/1999/xlink" width="400"
     height="400" viewBox="0, 0, 400,400">
    <g id="svgg">
        <path id="path0"
              d="M24.372 44.426 C 24.057 44.625,22.945 44.791,21.900 44.794 C 20.855 44.797,20.000 44.980,20.000 45.200 C 20.000 45.420,19.460 45.600,18.800 45.600 C 18.140 45.600,17.600 45.780,17.600 46.000 C 17.600 46.220,17.257 46.400,16.838 46.400 C 15.931 46.400,12.800 48.008,12.800 48.474 C 12.800 48.653,12.480 48.800,12.088 48.800 C 11.697 48.800,11.117 49.160,10.800 49.600 C 10.483 50.040,10.078 50.400,9.901 50.400 C 9.367 50.400,6.000 53.939,6.000 54.501 C 6.000 54.788,5.640 55.283,5.200 55.600 C 4.760 55.917,4.400 56.457,4.400 56.800 C 4.400 57.143,4.040 57.683,3.600 58.000 C 3.160 58.317,2.800 58.897,2.800 59.288 C 2.800 59.680,2.620 60.000,2.400 60.000 C 2.180 60.000,2.000 60.450,2.000 61.000 C 2.000 61.550,1.820 62.000,1.600 62.000 C 1.380 62.000,1.200 62.525,1.200 63.167 C 1.200 63.808,0.975 64.408,0.700 64.500 C 0.309 64.630,0.218 68.396,0.282 81.833 C 0.383 103.005,0.383 88.667,0.284 220.280 C 0.217 308.861,0.302 331.662,0.700 332.060 C 0.975 332.335,1.200 333.064,1.200 333.680 C 1.200 334.296,1.380 334.800,1.600 334.800 C 1.820 334.800,2.000 335.160,2.000 335.600 C 2.000 336.040,2.180 336.400,2.400 336.400 C 2.620 336.400,2.800 336.760,2.800 337.200 C 2.800 337.640,2.980 338.000,3.200 338.000 C 3.420 338.000,3.600 338.360,3.600 338.800 C 3.600 339.240,3.780 339.600,4.000 339.600 C 4.220 339.600,4.400 339.785,4.400 340.011 C 4.400 340.236,5.165 341.199,6.100 342.150 C 7.035 343.101,8.430 344.622,9.200 345.530 C 9.970 346.439,10.825 347.186,11.100 347.191 C 11.375 347.196,11.600 347.380,11.600 347.600 C 11.600 347.820,11.870 348.000,12.200 348.000 C 12.530 348.000,12.800 348.180,12.800 348.400 C 12.800 348.620,13.160 348.800,13.600 348.800 C 14.040 348.800,14.400 348.980,14.400 349.200 C 14.400 349.420,14.636 349.600,14.925 349.600 C 15.214 349.600,16.195 349.960,17.106 350.400 C 18.016 350.840,19.220 351.200,19.781 351.200 C 20.341 351.200,20.800 351.335,20.800 351.500 C 20.800 352.011,332.966 351.685,336.200 351.171 C 347.927 349.307,356.384 341.113,358.603 329.465 C 359.125 326.725,359.198 310.335,359.187 199.465 C 359.175 73.311,359.127 68.008,357.964 64.200 C 357.896 63.980,357.975 63.409,358.138 62.932 C 358.476 61.938,357.003 58.400,356.251 58.400 C 355.997 58.400,355.438 57.905,355.008 57.300 C 350.807 51.393,344.235 47.071,337.272 45.635 C 335.750 45.321,292.881 45.196,186.814 45.197 C 54.134 45.197,38.460 45.133,38.250 44.586 C 37.982 43.887,25.452 43.742,24.372 44.426 M314.000 70.938 C 322.122 73.663,328.283 80.518,329.570 88.261 C 330.450 93.559,329.960 308.972,329.062 311.200 C 326.051 318.676,321.270 323.361,314.397 325.570 L 311.793 326.407 179.997 326.495 L 48.200 326.584 45.307 325.534 C 37.000 322.519,31.780 316.421,30.025 307.680 C 29.319 304.162,29.440 92.617,30.151 89.000 C 32.182 78.659,39.545 71.493,49.400 70.265 C 54.706 69.603,311.973 70.258,314.000 70.938 "
              stroke="none" fill="#f4eafb" fill-rule="evenodd"></path>
        <path id="path1"
              d="M46.746 71.007 C 39.436 73.010,33.806 78.321,31.083 85.781 L 30.200 88.200 30.094 178.290 C 30.009 250.806,30.087 268.338,30.494 268.169 C 30.772 268.053,31.720 267.041,32.600 265.920 C 33.480 264.800,34.387 263.684,34.616 263.441 C 34.844 263.199,36.277 261.470,37.800 259.600 C 39.323 257.730,40.756 256.004,40.984 255.763 C 41.213 255.523,41.850 254.730,42.400 254.000 C 42.950 253.270,43.580 252.477,43.800 252.237 C 44.535 251.434,49.804 245.050,53.403 240.600 C 55.361 238.180,57.063 236.110,57.187 236.000 C 57.406 235.804,60.540 232.005,61.471 230.806 C 67.711 222.767,72.366 218.462,77.079 216.372 C 80.385 214.906,80.801 214.774,85.706 213.641 C 91.069 212.401,98.063 213.611,104.600 216.909 C 108.971 219.115,111.927 221.776,117.146 228.205 C 117.506 228.648,119.682 231.348,121.983 234.205 C 124.284 237.062,126.273 239.490,126.404 239.600 C 126.535 239.710,127.711 241.150,129.019 242.800 C 130.327 244.450,131.488 245.890,131.599 246.000 C 131.711 246.110,132.857 247.505,134.146 249.100 C 137.021 252.656,136.451 252.747,140.232 248.138 C 141.974 246.013,143.586 244.078,143.813 243.838 C 144.040 243.597,145.689 241.600,147.478 239.400 C 152.348 233.411,158.154 226.334,163.205 220.231 C 164.858 218.234,167.825 214.620,169.800 212.200 C 171.774 209.780,173.572 207.596,173.795 207.347 C 174.018 207.098,174.830 206.115,175.600 205.162 C 176.865 203.597,186.301 192.150,187.933 190.200 C 188.301 189.760,189.771 187.960,191.198 186.200 C 192.626 184.440,194.179 182.550,194.648 182.000 C 196.126 180.270,203.304 171.538,205.993 168.200 C 207.411 166.440,208.668 164.910,208.786 164.800 C 208.904 164.690,209.990 163.433,211.200 162.007 C 217.834 154.189,225.151 150.700,235.000 150.658 C 245.722 150.613,252.676 154.179,260.647 163.810 C 266.071 170.364,267.153 171.669,268.600 173.405 C 269.480 174.462,270.460 175.702,270.777 176.163 C 271.094 176.623,271.457 177.090,271.582 177.200 C 271.708 177.310,272.619 178.388,273.605 179.596 C 274.592 180.804,275.787 182.244,276.260 182.796 C 276.733 183.348,278.951 186.050,281.188 188.800 C 283.424 191.550,285.557 194.163,285.927 194.606 C 286.297 195.050,287.409 196.400,288.398 197.606 C 289.387 198.813,290.377 200.004,290.598 200.253 C 290.819 200.502,291.561 201.402,292.246 202.253 C 293.320 203.587,295.826 206.645,301.379 213.400 C 302.102 214.280,305.629 218.600,309.216 223.000 C 312.804 227.400,315.843 231.090,315.972 231.200 C 316.100 231.310,316.696 232.059,317.296 232.865 C 317.897 233.671,318.622 234.571,318.909 234.865 C 319.195 235.159,320.594 236.840,322.016 238.600 C 323.439 240.360,325.683 243.113,327.002 244.718 L 329.400 247.635 329.512 168.318 C 329.597 108.003,329.510 88.569,329.149 87.200 C 326.957 78.908,320.628 72.751,312.323 70.833 C 309.385 70.155,49.235 70.325,46.746 71.007 M113.094 92.435 C 117.081 93.345,118.085 93.683,121.400 95.235 C 128.619 98.615,137.600 108.671,137.600 113.372 C 137.600 113.691,137.780 114.064,138.000 114.200 C 138.220 114.336,138.400 114.898,138.400 115.450 C 138.400 116.001,138.592 116.811,138.826 117.248 C 139.494 118.497,139.370 128.600,138.654 131.200 C 137.546 135.227,137.280 135.931,135.828 138.674 C 131.974 145.956,124.270 152.352,117.000 154.306 C 116.120 154.543,114.659 154.931,113.754 155.168 C 111.588 155.736,103.723 155.722,101.306 155.146 C 91.083 152.709,82.984 146.310,78.842 137.400 C 78.331 136.300,77.752 135.087,77.556 134.705 C 77.360 134.323,77.200 133.594,77.200 133.085 C 77.200 132.576,77.037 131.989,76.839 131.780 C 76.019 130.918,75.545 122.208,76.143 119.000 C 76.486 117.159,77.156 114.563,77.588 113.400 C 78.416 111.172,80.595 106.800,80.877 106.800 C 81.055 106.800,81.200 106.568,81.200 106.284 C 81.200 105.526,85.984 100.415,88.459 98.529 C 92.142 95.723,98.627 92.810,101.228 92.794 C 101.763 92.791,102.470 92.613,102.800 92.400 C 103.615 91.873,110.738 91.897,113.094 92.435 "
              stroke="none" fill="#29bcf7" fill-rule="evenodd"></path>
        <path id="path2"
              d="M56.800 30.400 C 56.800 30.620,56.080 30.800,55.200 30.800 C 54.320 30.800,53.600 30.980,53.600 31.200 C 53.600 31.420,53.161 31.600,52.624 31.600 C 52.087 31.600,51.536 31.780,51.400 32.000 C 51.264 32.220,50.803 32.400,50.376 32.400 C 49.949 32.400,49.600 32.580,49.600 32.800 C 49.600 33.020,49.364 33.200,49.075 33.200 C 48.787 33.200,48.164 33.560,47.692 34.000 C 47.220 34.440,46.664 34.800,46.457 34.800 C 45.832 34.800,39.600 41.333,39.600 41.989 C 39.600 42.215,39.420 42.400,39.200 42.400 C 38.980 42.400,38.800 42.670,38.800 43.000 C 38.800 43.330,38.614 43.600,38.386 43.600 C 38.105 43.600,38.110 43.858,38.400 44.400 C 38.825 45.193,188.984 45.729,191.900 44.948 C 193.568 44.501,192.817 44.000,190.480 44.000 C 189.204 44.000,187.989 43.833,187.780 43.629 C 187.571 43.425,185.960 43.166,184.200 43.053 C 178.888 42.713,171.563 42.026,168.723 41.601 C 167.251 41.380,164.697 41.200,163.047 41.200 C 161.397 41.200,159.936 41.020,159.800 40.800 C 159.664 40.580,158.033 40.400,156.176 40.400 C 154.192 40.400,152.800 40.235,152.800 40.000 C 152.800 39.765,151.408 39.600,149.424 39.600 C 147.567 39.600,145.936 39.420,145.800 39.200 C 145.664 38.980,144.033 38.800,142.176 38.800 C 140.192 38.800,138.800 38.635,138.800 38.400 C 138.800 38.165,137.408 38.000,135.424 38.000 C 133.567 38.000,131.936 37.820,131.800 37.600 C 131.664 37.380,130.044 37.200,128.200 37.200 C 126.356 37.200,124.736 37.020,124.600 36.800 C 124.464 36.580,122.833 36.400,120.976 36.400 C 118.992 36.400,117.600 36.235,117.600 36.000 C 117.600 35.763,116.133 35.600,114.000 35.600 C 111.867 35.600,110.400 35.437,110.400 35.200 C 110.400 34.965,109.008 34.800,107.024 34.800 C 105.167 34.800,103.536 34.620,103.400 34.400 C 103.264 34.180,101.633 34.000,99.776 34.000 C 97.792 34.000,96.400 33.835,96.400 33.600 C 96.400 33.365,95.008 33.200,93.024 33.200 C 91.167 33.200,89.536 33.020,89.400 32.800 C 89.264 32.580,87.633 32.400,85.776 32.400 C 83.792 32.400,82.400 32.235,82.400 32.000 C 82.400 31.763,80.933 31.600,78.800 31.600 C 76.667 31.600,75.200 31.437,75.200 31.200 C 75.200 30.965,73.808 30.800,71.824 30.800 C 69.967 30.800,68.336 30.620,68.200 30.400 C 68.054 30.164,65.663 30.000,62.376 30.000 C 58.925 30.000,56.800 30.152,56.800 30.400 M358.010 63.500 C 358.015 63.885,358.208 65.010,358.438 66.000 C 358.668 66.990,359.018 70.230,359.214 73.200 C 359.411 76.170,359.743 79.500,359.952 80.600 C 360.161 81.700,360.542 83.770,360.800 85.200 C 361.058 86.630,361.440 88.700,361.650 89.800 C 361.860 90.900,362.197 92.700,362.400 93.800 C 362.603 94.900,362.961 96.790,363.197 98.000 C 364.197 103.131,364.337 103.877,364.585 105.400 C 364.729 106.280,365.002 107.720,365.191 108.600 C 365.633 110.657,366.246 113.916,366.808 117.200 C 367.053 118.630,367.407 120.520,367.594 121.400 C 367.960 123.117,368.303 124.907,369.590 131.800 C 370.042 134.220,371.321 141.060,372.433 147.000 C 373.545 152.940,374.609 158.700,374.797 159.800 C 374.985 160.900,375.423 163.240,375.771 165.000 C 376.119 166.760,376.595 169.280,376.828 170.600 C 377.062 171.920,377.409 173.720,377.600 174.600 C 377.791 175.480,378.154 177.370,378.408 178.800 C 379.370 184.219,379.674 185.847,380.011 187.400 C 380.202 188.280,380.463 189.658,380.590 190.461 C 380.806 191.820,381.607 192.660,382.161 192.106 C 382.292 191.974,382.400 190.377,382.400 188.557 C 382.400 186.737,382.580 185.136,382.800 185.000 C 383.020 184.864,383.200 183.244,383.200 181.400 C 383.200 179.556,383.380 177.936,383.600 177.800 C 383.820 177.664,384.000 176.033,384.000 174.176 C 384.000 172.192,384.165 170.800,384.400 170.800 C 384.637 170.800,384.800 169.333,384.800 167.200 C 384.800 165.067,384.963 163.600,385.200 163.600 C 385.435 163.600,385.600 162.208,385.600 160.224 C 385.600 158.367,385.780 156.736,386.000 156.600 C 386.220 156.464,386.400 154.833,386.400 152.976 C 386.400 150.992,386.565 149.600,386.800 149.600 C 387.037 149.600,387.200 148.133,387.200 146.000 C 387.200 143.867,387.363 142.400,387.600 142.400 C 387.835 142.400,388.000 141.008,388.000 139.024 C 388.000 137.167,388.180 135.536,388.400 135.400 C 388.620 135.264,388.800 133.669,388.800 131.856 C 388.800 130.043,388.967 128.389,389.171 128.180 C 389.375 127.971,389.639 126.360,389.758 124.600 C 389.877 122.840,390.159 119.780,390.385 117.800 C 390.612 115.820,391.006 111.095,391.261 107.300 C 391.517 103.505,391.877 100.400,392.063 100.400 C 392.248 100.400,392.400 98.600,392.400 96.400 C 392.400 94.000,392.560 92.400,392.800 92.400 C 393.020 92.400,393.200 91.770,393.200 91.000 C 393.200 90.230,393.020 89.600,392.800 89.600 C 392.571 89.600,392.400 88.400,392.400 86.800 C 392.400 85.260,392.244 84.000,392.054 84.000 C 391.864 84.000,391.599 83.198,391.464 82.217 C 391.185 80.178,389.931 77.307,388.783 76.074 C 388.352 75.611,388.000 75.067,388.000 74.863 C 388.000 74.284,383.126 69.465,381.900 68.832 C 381.295 68.520,380.800 68.115,380.800 67.932 C 380.800 67.750,380.440 67.600,380.000 67.600 C 379.560 67.600,379.199 67.465,379.197 67.300 C 379.193 66.941,377.256 66.000,376.520 66.000 C 376.234 66.000,376.000 65.820,376.000 65.600 C 376.000 65.380,375.561 65.200,375.024 65.200 C 374.487 65.200,373.936 65.020,373.800 64.800 C 373.664 64.580,372.944 64.400,372.200 64.400 C 371.456 64.400,370.736 64.220,370.600 64.000 C 370.464 63.780,369.013 63.600,367.376 63.600 C 365.659 63.600,364.400 63.431,364.400 63.200 C 364.400 62.967,363.067 62.800,361.200 62.800 C 358.415 62.800,358.001 62.891,358.010 63.500 M102.800 93.206 C 99.260 93.759,98.005 94.069,97.771 94.446 C 97.651 94.641,97.222 94.800,96.817 94.800 C 93.882 94.800,86.455 100.355,82.746 105.326 C 80.643 108.143,79.898 109.447,78.759 112.300 C 78.562 112.795,78.234 113.605,78.030 114.100 C 75.558 120.115,76.545 131.455,80.146 138.400 C 88.866 155.221,111.993 160.528,126.400 149.014 C 146.216 133.177,141.431 102.787,117.800 94.395 C 115.048 93.417,113.706 93.196,109.591 93.038 C 107.066 92.942,104.010 93.017,102.800 93.206 M362.800 325.261 C 361.810 325.481,360.606 325.738,360.124 325.832 C 359.418 325.970,359.200 326.370,358.997 327.902 C 358.232 333.680,355.679 339.113,351.839 343.137 C 348.088 347.067,344.262 349.248,338.200 350.914 C 337.093 351.218,318.862 351.433,279.000 351.612 C 240.859 351.783,220.724 352.014,219.400 352.295 C 216.737 352.861,213.015 353.604,210.800 354.012 C 205.205 355.044,204.285 356.000,208.887 356.000 C 210.511 356.000,212.011 356.167,212.220 356.372 C 212.429 356.576,214.130 356.840,216.000 356.957 C 217.870 357.075,221.020 357.353,223.000 357.575 C 230.361 358.400,234.283 358.726,237.300 358.762 C 239.075 358.784,240.400 358.971,240.400 359.200 C 240.400 359.435,241.800 359.600,243.800 359.600 C 245.800 359.600,247.200 359.765,247.200 360.000 C 247.200 360.237,248.667 360.400,250.800 360.400 C 252.933 360.400,254.400 360.563,254.400 360.800 C 254.400 361.035,255.800 361.200,257.800 361.200 C 259.800 361.200,261.200 361.365,261.200 361.600 C 261.200 361.837,262.667 362.000,264.800 362.000 C 266.933 362.000,268.400 362.163,268.400 362.400 C 268.400 362.637,269.867 362.800,272.000 362.800 C 274.133 362.800,275.600 362.963,275.600 363.200 C 275.600 363.435,277.000 363.600,279.000 363.600 C 281.000 363.600,282.400 363.765,282.400 364.000 C 282.400 364.237,283.867 364.400,286.000 364.400 C 288.133 364.400,289.600 364.563,289.600 364.800 C 289.600 365.035,290.992 365.200,292.976 365.200 C 294.833 365.200,296.464 365.380,296.600 365.600 C 296.736 365.820,298.367 366.000,300.224 366.000 C 302.208 366.000,303.600 366.165,303.600 366.400 C 303.600 366.637,305.067 366.800,307.200 366.800 C 309.333 366.800,310.800 366.963,310.800 367.200 C 310.800 367.435,312.200 367.600,314.200 367.600 C 316.200 367.600,317.600 367.765,317.600 368.000 C 317.600 368.237,319.067 368.400,321.200 368.400 C 323.333 368.400,324.800 368.563,324.800 368.800 C 324.800 369.035,326.192 369.200,328.176 369.200 C 330.033 369.200,331.664 369.380,331.800 369.600 C 331.945 369.834,334.263 370.000,337.400 370.000 C 340.537 370.000,342.855 369.834,343.000 369.600 C 343.136 369.380,343.957 369.200,344.824 369.200 C 345.691 369.200,346.400 369.020,346.400 368.800 C 346.400 368.580,346.839 368.400,347.376 368.400 C 347.913 368.400,348.464 368.220,348.600 368.000 C 348.736 367.780,349.197 367.600,349.624 367.600 C 350.051 367.600,350.400 367.420,350.400 367.200 C 350.400 366.980,350.636 366.800,350.925 366.800 C 351.213 366.800,351.836 366.440,352.308 366.000 C 352.780 365.560,353.364 365.200,353.605 365.200 C 353.847 365.200,355.115 364.075,356.423 362.700 C 359.976 358.966,360.400 358.467,360.400 358.014 C 360.400 357.786,360.580 357.600,360.800 357.600 C 361.020 357.600,361.200 357.330,361.200 357.000 C 361.200 356.670,361.380 356.400,361.600 356.400 C 361.820 356.400,362.000 356.040,362.000 355.600 C 362.000 355.160,362.180 354.800,362.400 354.800 C 362.620 354.800,362.800 354.350,362.800 353.800 C 362.800 353.250,362.980 352.800,363.200 352.800 C 363.420 352.800,363.600 352.260,363.600 351.600 C 363.600 350.940,363.762 350.400,363.960 350.400 C 364.382 350.400,364.766 347.906,365.053 343.300 C 365.166 341.485,365.426 340.000,365.629 340.000 C 365.833 340.000,366.000 338.481,366.000 336.624 C 366.000 334.767,366.180 333.136,366.400 333.000 C 366.620 332.864,366.800 331.248,366.800 329.410 C 366.800 327.097,366.954 326.012,367.300 325.888 C 369.109 325.242,365.285 324.709,362.800 325.261 "
              stroke="none" fill="#f89243" fill-rule="evenodd"></path>
        <path id="path3"
              d="M322.600 20.400 C 322.464 20.620,321.283 20.800,319.976 20.800 C 318.659 20.800,317.600 20.978,317.600 21.200 C 317.600 21.420,316.790 21.600,315.800 21.600 C 314.810 21.600,314.000 21.780,314.000 22.000 C 314.000 22.220,313.100 22.400,312.000 22.400 C 310.900 22.400,310.000 22.580,310.000 22.800 C 310.000 23.020,309.100 23.200,308.000 23.200 C 306.900 23.200,306.000 23.380,306.000 23.600 C 306.000 23.822,304.933 24.000,303.600 24.000 C 302.267 24.000,301.200 24.178,301.200 24.400 C 301.200 24.620,300.300 24.800,299.200 24.800 C 298.100 24.800,297.200 24.939,297.200 25.109 C 297.200 25.279,296.525 25.459,295.700 25.510 C 294.875 25.561,293.120 25.783,291.800 26.005 C 290.480 26.227,288.452 26.519,287.293 26.654 C 286.134 26.789,285.088 27.058,284.969 27.250 C 284.850 27.443,283.874 27.600,282.800 27.600 C 281.726 27.600,280.736 27.780,280.600 28.000 C 280.464 28.220,279.564 28.400,278.600 28.400 C 277.636 28.400,276.736 28.580,276.600 28.800 C 276.464 29.020,275.564 29.200,274.600 29.200 C 273.636 29.200,272.736 29.380,272.600 29.600 C 272.464 29.820,271.463 30.000,270.376 30.000 C 269.289 30.000,268.400 30.180,268.400 30.400 C 268.400 30.620,267.421 30.800,266.224 30.800 C 265.027 30.800,263.936 30.980,263.800 31.200 C 263.664 31.420,262.753 31.600,261.776 31.600 C 260.799 31.600,260.000 31.780,260.000 32.000 C 260.000 32.220,259.100 32.400,258.000 32.400 C 256.900 32.400,256.000 32.580,256.000 32.800 C 256.000 33.020,255.111 33.200,254.024 33.200 C 252.937 33.200,251.936 33.380,251.800 33.600 C 251.664 33.820,250.573 34.000,249.376 34.000 C 248.179 34.000,247.200 34.180,247.200 34.400 C 247.200 34.620,246.390 34.800,245.400 34.800 C 244.410 34.800,243.600 34.980,243.600 35.200 C 243.600 35.422,242.533 35.600,241.200 35.600 C 239.867 35.600,238.800 35.778,238.800 36.000 C 238.800 36.220,237.900 36.400,236.800 36.400 C 235.700 36.400,234.800 36.580,234.800 36.800 C 234.800 37.020,233.900 37.200,232.800 37.200 C 231.700 37.200,230.800 37.363,230.800 37.561 C 230.800 37.760,229.945 38.025,228.900 38.151 C 223.764 38.767,222.972 38.904,222.620 39.239 C 222.411 39.437,221.477 39.600,220.544 39.600 C 219.611 39.600,218.736 39.780,218.600 40.000 C 218.464 40.220,217.474 40.400,216.400 40.400 C 215.326 40.400,214.336 40.580,214.200 40.800 C 214.064 41.020,213.063 41.200,211.976 41.200 C 210.852 41.200,210.000 41.383,210.000 41.624 C 210.000 41.857,209.865 41.966,209.700 41.866 C 209.535 41.766,208.320 41.859,207.000 42.072 C 205.680 42.286,204.150 42.499,203.599 42.545 C 203.048 42.592,202.418 42.742,202.198 42.877 C 201.978 43.013,200.989 43.178,199.999 43.243 C 199.010 43.308,198.093 43.515,197.963 43.703 C 197.832 43.891,196.617 44.078,195.263 44.119 C 193.908 44.159,192.800 44.316,192.800 44.467 C 192.800 44.618,192.485 44.821,192.100 44.918 C 191.715 45.015,223.759 45.121,263.309 45.153 C 336.041 45.213,336.814 45.228,341.200 46.663 C 342.833 47.197,347.894 49.795,348.413 50.366 C 349.983 52.091,353.983 55.587,353.658 54.948 C 352.977 53.614,347.847 49.042,345.827 47.970 C 343.772 46.880,343.358 45.440,344.800 44.400 C 345.240 44.083,345.600 43.543,345.600 43.200 C 345.600 42.857,345.960 42.317,346.400 42.000 C 346.840 41.683,347.200 41.233,347.200 41.000 C 347.200 40.767,347.560 40.317,348.000 40.000 C 348.440 39.683,348.800 39.103,348.800 38.712 C 348.800 38.320,348.959 38.000,349.153 38.000 C 350.052 38.000,350.537 33.217,349.715 32.450 C 349.432 32.185,349.194 32.111,349.186 32.284 C 349.158 32.913,348.027 30.579,347.983 29.800 C 347.957 29.353,347.847 29.224,347.733 29.507 C 347.453 30.203,345.616 28.448,345.607 27.476 C 345.603 27.078,345.420 26.864,345.200 27.000 C 344.980 27.136,344.797 27.012,344.794 26.724 C 344.790 26.353,344.702 26.333,344.494 26.656 C 344.281 26.986,344.058 26.958,343.684 26.556 C 343.401 26.250,343.311 25.994,343.484 25.986 C 343.658 25.979,343.122 25.652,342.293 25.260 C 341.465 24.867,340.881 24.452,340.996 24.337 C 341.111 24.222,340.349 23.697,339.302 23.170 C 338.256 22.642,337.310 22.118,337.200 22.005 C 337.090 21.892,336.550 21.738,336.000 21.662 C 335.450 21.586,334.940 21.361,334.867 21.162 C 334.793 20.963,333.859 20.800,332.790 20.800 C 331.722 20.800,330.736 20.620,330.600 20.400 C 330.464 20.179,328.670 20.000,326.600 20.000 C 324.530 20.000,322.736 20.179,322.600 20.400 M350.400 35.576 C 350.400 35.783,350.583 36.066,350.807 36.204 C 351.030 36.342,351.111 36.621,350.986 36.823 C 350.861 37.025,351.038 37.084,351.379 36.953 C 352.184 36.644,352.182 36.000,351.376 36.000 C 351.033 36.000,350.864 35.820,351.000 35.600 C 351.136 35.380,351.057 35.200,350.824 35.200 C 350.591 35.200,350.400 35.369,350.400 35.576 M354.451 56.698 C 355.408 57.916,356.000 58.468,355.987 58.129 C 355.969 57.685,354.544 56.000,354.187 56.000 C 354.030 56.000,354.149 56.314,354.451 56.698 M359.238 79.400 C 359.227 80.620,359.316 80.842,359.612 80.335 C 359.857 79.916,359.862 79.325,359.626 78.735 C 359.298 77.917,359.249 78.001,359.238 79.400 M102.400 92.755 C 101.630 92.893,104.060 93.006,107.800 93.008 C 111.749 93.009,113.845 92.895,112.800 92.735 C 110.610 92.400,104.323 92.412,102.400 92.755 M97.138 94.149 C 91.255 96.170,85.166 100.896,81.619 106.193 C 79.677 109.094,78.904 110.630,79.605 110.197 C 79.822 110.063,80.000 109.759,80.000 109.521 C 80.000 106.177,92.997 94.800,96.817 94.800 C 97.222 94.800,97.664 94.620,97.800 94.400 C 97.936 94.180,98.442 93.997,98.924 93.994 C 99.406 93.991,100.070 93.813,100.400 93.600 C 101.466 92.911,100.042 93.151,97.138 94.149 M115.200 93.570 C 115.530 93.800,116.117 93.991,116.505 93.994 C 116.893 93.997,117.523 94.156,117.905 94.346 C 118.287 94.536,120.213 95.481,122.183 96.446 C 125.751 98.192,130.263 102.053,133.350 106.000 C 134.155 107.030,134.101 106.875,133.144 105.414 C 130.399 101.223,126.155 97.749,120.669 95.201 C 117.501 93.730,113.880 92.650,115.200 93.570 M0.080 104.000 C 0.080 107.670,0.210 109.792,0.400 109.200 C 0.816 107.903,0.816 100.097,0.400 98.800 C 0.210 98.208,0.080 100.330,0.080 104.000 M363.234 100.000 C 363.246 100.330,363.411 100.960,363.600 101.400 L 363.944 102.200 363.966 101.400 C 363.978 100.960,363.813 100.330,363.600 100.000 C 363.255 99.467,363.215 99.467,363.234 100.000 M364.068 104.000 C 364.088 105.039,364.718 106.746,364.732 105.800 C 364.738 105.360,364.589 104.640,364.400 104.200 C 364.189 103.710,364.061 103.632,364.068 104.000 M135.482 109.789 C 136.073 110.993,136.623 111.911,136.705 111.829 C 136.884 111.649,134.867 107.600,134.598 107.600 C 134.494 107.600,134.892 108.585,135.482 109.789 M364.868 108.400 C 364.888 109.439,365.518 111.146,365.532 110.200 C 365.538 109.760,365.389 109.040,365.200 108.600 C 364.989 108.110,364.861 108.032,364.868 108.400 M78.078 112.886 C 77.099 115.389,76.522 118.129,77.170 117.200 C 77.400 116.870,77.591 116.193,77.594 115.695 C 77.597 115.197,77.759 114.477,77.953 114.095 C 78.969 112.099,79.313 111.180,79.120 110.986 C 79.001 110.868,78.533 111.723,78.078 112.886 M365.668 112.600 C 365.674 113.040,365.824 113.850,366.000 114.400 L 366.320 115.400 366.332 114.400 C 366.338 113.850,366.189 113.040,366.000 112.600 L 365.656 111.800 365.668 112.600 M137.858 116.000 C 138.175 117.725,138.402 118.051,138.394 116.767 C 138.391 116.235,138.211 115.530,137.994 115.200 C 137.718 114.778,137.677 115.015,137.858 116.000 M76.217 121.700 C 76.077 123.515,76.129 126.080,76.333 127.400 C 76.661 129.530,76.708 129.160,76.751 124.100 C 76.806 117.703,76.598 116.767,76.217 121.700 M138.950 123.800 C 138.951 126.220,139.016 127.158,139.096 125.885 C 139.176 124.612,139.175 122.632,139.094 121.485 C 139.014 120.338,138.949 121.380,138.950 123.800 M367.473 122.400 C 367.604 123.390,367.776 124.275,367.856 124.367 C 368.157 124.714,367.928 122.164,367.590 121.400 C 367.353 120.866,367.314 121.198,367.473 122.400 M368.259 126.600 C 368.393 127.700,368.569 128.675,368.651 128.767 C 368.964 129.117,368.726 126.161,368.380 125.400 C 368.135 124.861,368.095 125.254,368.259 126.600 M369.031 131.207 C 369.186 132.413,369.468 133.817,369.657 134.326 C 369.846 134.835,370.013 135.825,370.028 136.526 C 370.044 137.227,370.223 138.160,370.427 138.600 C 370.888 139.595,370.599 137.145,369.721 132.600 C 368.993 128.830,368.630 128.098,369.031 131.207 M77.044 131.500 C 77.199 132.325,77.577 133.540,77.884 134.200 C 78.336 135.169,78.395 135.208,78.192 134.400 C 78.054 133.850,77.759 132.635,77.538 131.700 C 77.041 129.600,76.660 129.446,77.044 131.500 M78.814 136.638 C 79.472 138.368,82.305 142.917,83.585 144.300 C 85.513 146.382,85.431 145.799,83.473 143.500 C 82.489 142.345,81.013 140.095,80.192 138.500 C 78.669 135.538,78.109 134.781,78.814 136.638 M371.008 141.200 C 371.355 144.485,371.851 147.184,372.165 147.494 C 372.531 147.856,372.159 145.168,371.376 141.800 C 370.895 139.730,370.844 139.647,371.008 141.200 M129.000 146.694 C 127.460 148.157,126.740 148.974,127.400 148.510 C 128.570 147.686,132.348 143.983,131.983 144.017 C 131.882 144.027,130.540 145.231,129.000 146.694 M87.000 147.566 C 87.778 148.461,90.000 150.198,90.000 149.912 C 90.000 149.834,89.145 149.067,88.100 148.208 C 87.055 147.349,86.560 147.060,87.000 147.566 M372.475 149.200 C 372.465 149.970,372.611 150.960,372.800 151.400 C 373.257 152.464,373.257 150.797,372.800 149.000 L 372.495 147.800 372.475 149.200 M90.400 150.183 C 90.400 150.457,94.012 152.521,94.186 152.347 C 94.268 152.265,93.450 151.703,92.368 151.099 C 91.286 150.495,90.400 150.083,90.400 150.183 M229.800 151.259 C 221.441 153.223,216.299 156.441,210.598 163.276 C 208.889 165.324,206.816 167.810,205.991 168.800 C 205.166 169.790,201.837 173.840,198.594 177.800 C 195.351 181.760,192.107 185.720,191.386 186.600 C 190.664 187.480,186.862 192.089,182.937 196.842 C 179.012 201.595,171.840 210.312,167.000 216.212 C 162.160 222.112,155.950 229.670,153.200 233.007 C 150.450 236.343,145.770 242.066,142.800 245.723 C 139.830 249.380,137.040 252.495,136.600 252.644 C 136.160 252.793,135.550 253.270,135.244 253.705 C 134.679 254.508,130.113 260.247,128.009 262.800 C 126.882 264.167,125.205 266.232,124.000 267.739 C 123.670 268.152,123.214 268.694,122.986 268.945 C 122.758 269.195,119.884 272.730,116.600 276.800 C 113.316 280.870,110.442 284.404,110.214 284.653 C 109.986 284.902,109.238 285.802,108.551 286.653 C 107.864 287.504,104.289 291.890,100.605 296.400 C 96.921 300.910,93.343 305.296,92.654 306.147 C 91.964 306.998,91.216 307.898,90.991 308.147 C 90.667 308.505,84.334 316.267,81.202 320.145 C 80.871 320.554,80.419 321.094,80.198 321.345 C 78.180 323.632,76.400 325.998,76.400 326.394 C 76.400 326.935,189.300 326.871,192.925 326.328 C 193.984 326.170,198.484 325.917,202.925 325.767 C 211.012 325.493,212.042 325.311,213.247 323.937 C 213.603 323.532,214.116 323.200,214.386 323.200 C 214.657 323.200,215.383 322.660,216.000 322.000 C 216.617 321.340,217.333 320.800,217.592 320.800 C 217.851 320.800,218.754 320.080,219.600 319.200 C 220.446 318.320,221.349 317.600,221.608 317.600 C 221.867 317.600,222.583 317.060,223.200 316.400 C 223.817 315.740,224.537 315.200,224.800 315.200 C 225.063 315.200,225.783 314.660,226.400 314.000 C 227.017 313.340,227.647 312.800,227.800 312.800 C 227.953 312.800,228.558 312.287,229.145 311.659 C 229.731 311.032,230.838 310.195,231.605 309.800 C 232.372 309.405,233.291 308.748,233.647 308.341 C 234.003 307.933,234.516 307.600,234.786 307.600 C 235.057 307.600,235.783 307.060,236.400 306.400 C 237.017 305.740,237.733 305.200,237.992 305.200 C 238.251 305.200,239.154 304.480,240.000 303.600 C 240.846 302.720,241.755 302.000,242.022 302.000 C 242.548 302.000,244.000 300.488,244.000 299.939 C 244.000 299.752,244.288 299.600,244.640 299.600 C 244.991 299.600,245.783 299.060,246.400 298.400 C 247.017 297.740,247.733 297.200,247.992 297.200 C 248.251 297.200,249.154 296.480,250.000 295.600 C 250.846 294.720,251.802 294.000,252.126 294.000 C 252.450 294.000,253.293 293.460,254.000 292.800 C 254.707 292.140,255.437 291.600,255.624 291.600 C 255.811 291.600,256.414 291.150,256.964 290.600 C 257.514 290.050,258.202 289.600,258.494 289.600 C 258.785 289.600,259.288 289.223,259.612 288.763 C 260.746 287.148,261.498 286.400,261.986 286.400 C 262.257 286.400,262.983 285.860,263.600 285.200 C 264.217 284.540,264.937 284.000,265.200 284.000 C 265.463 284.000,266.183 283.460,266.800 282.800 C 267.417 282.140,268.137 281.600,268.400 281.600 C 268.663 281.600,269.383 281.060,270.000 280.400 C 270.617 279.740,271.327 279.200,271.579 279.200 C 271.830 279.200,272.523 278.746,273.118 278.191 C 273.713 277.636,274.485 276.916,274.834 276.591 C 275.182 276.266,275.664 276.000,275.905 276.000 C 276.145 276.000,276.696 275.550,277.129 275.000 C 277.561 274.450,278.132 274.000,278.397 274.000 C 278.662 274.000,279.383 273.460,280.000 272.800 C 280.617 272.140,281.333 271.600,281.592 271.600 C 281.851 271.600,282.754 270.880,283.600 270.000 C 284.446 269.120,285.349 268.400,285.608 268.400 C 285.867 268.400,286.583 267.860,287.200 267.200 C 287.817 266.540,288.537 266.000,288.800 266.000 C 289.063 266.000,289.783 265.460,290.400 264.800 C 291.017 264.140,291.719 263.600,291.960 263.600 C 292.202 263.600,292.400 263.420,292.400 263.200 C 292.400 262.980,292.670 262.800,293.000 262.800 C 293.330 262.800,293.600 262.648,293.600 262.461 C 293.600 261.839,295.086 260.400,295.729 260.400 C 296.078 260.400,296.814 259.950,297.364 259.400 C 297.914 258.850,298.570 258.400,298.821 258.400 C 299.073 258.400,299.783 257.860,300.400 257.200 C 301.017 256.540,301.733 256.000,301.992 256.000 C 302.251 256.000,303.154 255.280,304.000 254.400 C 304.846 253.520,305.749 252.800,306.008 252.800 C 306.267 252.800,306.983 252.260,307.600 251.600 C 308.217 250.940,309.009 250.400,309.360 250.400 C 309.712 250.400,310.000 250.248,310.000 250.061 C 310.000 249.512,311.452 248.000,311.978 248.000 C 312.245 248.000,313.154 247.280,314.000 246.400 C 314.846 245.520,315.739 244.800,315.986 244.800 C 316.232 244.800,316.651 244.617,316.917 244.393 C 318.715 242.876,319.356 242.400,319.600 242.400 C 321.715 242.400,321.943 239.520,319.981 237.604 C 319.641 237.272,318.929 236.370,318.400 235.600 C 317.871 234.830,317.331 234.110,317.201 234.000 C 317.070 233.890,316.079 232.630,315.000 231.200 C 313.921 229.770,312.934 228.510,312.808 228.400 C 312.682 228.290,311.959 227.390,311.201 226.400 C 310.443 225.410,309.548 224.330,309.211 224.000 C 308.875 223.669,307.972 222.589,307.206 221.600 C 305.176 218.980,304.734 218.431,303.372 216.837 C 302.697 216.047,300.726 213.600,298.992 211.400 C 297.258 209.200,295.603 207.159,295.314 206.865 C 295.025 206.571,294.296 205.674,293.694 204.871 C 293.092 204.068,292.213 202.959,291.740 202.406 C 291.267 201.853,289.049 199.150,286.812 196.400 C 284.576 193.650,282.443 191.037,282.073 190.594 C 281.703 190.150,280.592 188.800,279.605 187.594 C 278.619 186.387,277.708 185.310,277.582 185.200 C 277.457 185.090,277.094 184.621,276.777 184.157 C 276.460 183.694,275.456 182.434,274.546 181.357 C 273.636 180.281,271.057 177.150,268.816 174.400 C 258.042 161.183,256.532 159.445,254.119 157.483 C 247.792 152.337,236.983 149.571,229.800 151.259 M120.000 152.600 C 119.450 152.914,119.180 153.172,119.400 153.172 C 119.620 153.172,120.250 152.914,120.800 152.600 C 121.350 152.286,121.620 152.028,121.400 152.028 C 121.180 152.028,120.550 152.286,120.000 152.600 M373.253 153.600 C 373.231 154.370,373.387 155.270,373.600 155.600 C 374.077 156.339,374.077 155.276,373.600 153.400 L 373.295 152.200 373.253 153.600 M99.600 154.394 C 99.930 154.611,100.635 154.791,101.167 154.794 C 102.451 154.802,102.125 154.575,100.400 154.258 C 99.415 154.077,99.178 154.118,99.600 154.394 M114.400 154.400 C 113.576 154.664,113.541 154.726,114.200 154.754 C 114.640 154.773,115.270 154.613,115.600 154.400 C 116.301 153.947,115.814 153.947,114.400 154.400 M106.100 155.491 C 106.925 155.578,108.275 155.578,109.100 155.491 C 109.925 155.405,109.250 155.334,107.600 155.334 C 105.950 155.334,105.275 155.405,106.100 155.491 M374.046 158.000 C 374.027 158.770,374.187 159.670,374.400 160.000 C 374.887 160.754,374.887 159.122,374.400 157.600 C 374.107 156.684,374.077 156.717,374.046 158.000 M374.846 162.200 C 374.827 162.860,374.987 163.670,375.200 164.000 C 375.690 164.758,375.690 163.530,375.200 162.000 C 374.886 161.020,374.879 161.024,374.846 162.200 M375.640 166.476 C 375.618 167.288,375.780 168.064,376.000 168.200 C 376.463 168.486,376.463 167.445,376.000 166.000 C 375.712 165.102,375.676 165.150,375.640 166.476 M376.446 170.600 C 376.427 171.260,376.587 172.070,376.800 172.400 C 377.290 173.158,377.290 171.930,376.800 170.400 C 376.486 169.420,376.479 169.424,376.446 170.600 M377.234 175.000 C 377.222 175.660,377.387 176.470,377.600 176.800 C 378.106 177.582,378.106 175.776,377.600 174.600 C 377.305 173.913,377.253 173.970,377.234 175.000 M378.046 179.000 C 378.027 179.660,378.187 180.470,378.400 180.800 C 378.890 181.558,378.890 180.330,378.400 178.800 C 378.086 177.820,378.079 177.824,378.046 179.000 M378.868 183.200 C 378.862 183.750,379.011 184.560,379.200 185.000 L 379.544 185.800 379.532 185.000 C 379.526 184.560,379.376 183.750,379.200 183.200 L 378.880 182.200 378.868 183.200 M379.634 187.600 C 379.622 188.150,379.787 188.870,380.000 189.200 C 380.509 189.987,380.509 188.584,380.000 187.400 C 379.685 186.667,379.654 186.684,379.634 187.600 M380.446 191.267 C 380.383 192.173,380.806 193.200,381.243 193.200 C 381.439 193.200,381.600 192.930,381.600 192.600 C 381.600 192.270,381.433 192.000,381.229 192.000 C 381.025 192.000,380.776 191.685,380.676 191.300 C 380.515 190.683,380.487 190.679,380.446 191.267 M87.400 213.835 C 78.165 215.078,72.328 218.422,65.844 226.180 C 60.753 232.273,52.491 242.257,50.800 244.361 C 50.030 245.319,48.485 247.205,47.367 248.552 C 44.287 252.261,35.316 263.162,33.667 265.200 C 32.865 266.190,31.623 267.603,30.905 268.340 L 29.600 269.680 29.600 287.620 C 29.600 307.648,29.711 308.814,32.118 314.000 C 33.267 316.476,36.000 320.047,36.507 319.734 C 36.736 319.592,36.808 319.664,36.666 319.893 C 35.637 321.559,39.808 321.261,41.446 319.552 C 42.053 318.919,42.741 318.399,42.975 318.397 C 43.209 318.396,44.120 317.684,45.000 316.817 C 45.880 315.949,46.780 315.230,47.000 315.218 C 47.220 315.206,47.975 314.657,48.678 313.998 C 49.381 313.339,50.113 312.800,50.303 312.800 C 50.494 312.800,51.168 312.260,51.800 311.600 C 52.432 310.940,53.155 310.400,53.405 310.400 C 53.656 310.400,54.283 309.950,54.800 309.400 C 55.317 308.850,55.898 308.400,56.091 308.400 C 56.285 308.400,57.019 307.861,57.722 307.202 C 58.425 306.543,59.143 306.003,59.317 306.002 C 59.492 306.001,60.362 305.325,61.252 304.500 C 62.141 303.675,63.107 302.910,63.400 302.800 C 63.693 302.690,64.659 301.925,65.548 301.100 C 66.438 300.275,67.351 299.600,67.579 299.600 C 67.807 299.600,68.218 299.240,68.493 298.800 C 68.768 298.360,69.219 298.000,69.496 298.000 C 69.773 298.000,70.000 297.820,70.000 297.600 C 70.000 297.380,70.230 297.200,70.511 297.200 C 70.792 297.200,71.320 296.885,71.683 296.500 C 72.687 295.436,73.527 294.800,73.927 294.800 C 74.126 294.800,74.626 294.350,75.039 293.800 C 75.452 293.250,75.983 292.800,76.220 292.800 C 76.457 292.800,77.168 292.260,77.800 291.600 C 78.432 290.940,79.186 290.400,79.475 290.400 C 79.764 290.400,80.000 290.220,80.000 290.000 C 80.000 289.780,80.227 289.600,80.504 289.600 C 80.781 289.600,81.232 289.240,81.507 288.800 C 81.782 288.360,82.230 287.991,82.503 287.980 C 82.777 287.970,83.720 287.251,84.600 286.383 C 85.480 285.516,86.345 284.804,86.522 284.803 C 86.699 284.801,87.419 284.261,88.122 283.602 C 88.825 282.943,89.545 282.403,89.722 282.402 C 89.899 282.401,90.619 281.861,91.322 281.202 C 92.025 280.543,92.747 280.003,92.927 280.002 C 93.106 280.001,93.916 279.372,94.727 278.603 C 95.537 277.835,96.345 277.205,96.522 277.203 C 96.699 277.202,97.419 276.661,98.122 276.002 C 98.825 275.343,99.545 274.803,99.722 274.802 C 99.899 274.801,100.619 274.261,101.322 273.602 C 102.025 272.943,102.780 272.394,103.000 272.382 C 103.220 272.370,104.120 271.651,105.000 270.783 C 105.880 269.916,106.737 269.204,106.903 269.203 C 107.175 269.200,108.832 267.852,110.227 266.500 C 110.511 266.225,110.891 265.999,111.071 265.998 C 111.252 265.997,111.975 265.457,112.678 264.798 C 113.381 264.139,114.113 263.600,114.303 263.600 C 114.494 263.600,115.168 263.060,115.800 262.400 C 116.432 261.740,117.155 261.200,117.405 261.200 C 117.656 261.200,118.283 260.750,118.800 260.200 C 119.317 259.650,119.898 259.200,120.091 259.200 C 120.285 259.200,121.019 258.661,121.722 258.002 C 122.425 257.343,123.143 256.803,123.317 256.802 C 123.492 256.801,124.362 256.125,125.252 255.300 C 126.141 254.475,127.107 253.710,127.400 253.600 C 127.693 253.490,128.632 252.770,129.487 252.000 C 130.342 251.230,131.382 250.407,131.797 250.171 C 132.787 249.610,132.956 249.019,132.318 248.346 C 132.033 248.046,131.301 247.065,130.692 246.166 C 130.082 245.268,129.267 244.188,128.881 243.766 C 128.494 243.345,127.742 242.370,127.208 241.600 C 126.675 240.830,126.135 240.110,126.009 240.000 C 125.883 239.890,125.159 238.990,124.400 238.000 C 123.641 237.010,122.914 236.110,122.783 236.000 C 122.652 235.890,120.428 233.142,117.839 229.894 C 110.513 220.700,107.505 218.144,100.994 215.582 C 97.788 214.320,90.629 213.400,87.400 213.835 M362.400 325.218 C 361.962 325.515,362.124 325.552,363.000 325.356 C 364.471 325.027,364.790 324.798,363.767 324.806 C 363.345 324.809,362.730 324.995,362.400 325.218 M199.300 326.676 C 199.685 326.776,200.315 326.776,200.700 326.676 C 201.085 326.575,200.770 326.493,200.000 326.493 C 199.230 326.493,198.915 326.575,199.300 326.676 M219.400 352.000 L 218.200 352.305 219.400 352.325 C 220.060 352.335,220.960 352.189,221.400 352.000 L 222.200 351.656 221.400 351.675 C 220.960 351.686,220.060 351.832,219.400 352.000 M214.500 353.076 C 214.885 353.176,215.515 353.176,215.900 353.076 C 216.285 352.975,215.970 352.893,215.200 352.893 C 214.430 352.893,214.115 352.975,214.500 353.076 M211.000 353.600 L 209.400 353.886 210.800 353.915 C 211.570 353.931,212.560 353.789,213.000 353.600 C 213.943 353.195,213.262 353.195,211.000 353.600 M45.705 354.585 C 45.777 355.127,45.963 355.697,46.118 355.852 C 46.273 356.007,46.400 356.913,46.400 357.867 C 46.400 358.820,46.580 359.600,46.800 359.600 C 47.020 359.600,47.200 360.140,47.200 360.800 C 47.200 361.460,47.380 362.000,47.600 362.000 C 47.820 362.000,48.000 362.540,48.000 363.200 C 48.000 363.860,48.180 364.400,48.400 364.400 C 48.620 364.400,48.800 364.760,48.800 365.200 C 48.800 365.640,48.950 366.000,49.132 366.000 C 49.315 366.000,49.719 366.495,50.030 367.100 C 50.340 367.705,50.911 368.491,51.297 368.847 C 51.684 369.203,52.000 369.698,52.000 369.947 C 52.000 370.196,52.180 370.400,52.400 370.400 C 52.620 370.400,52.800 370.601,52.800 370.847 C 52.800 371.287,55.171 373.581,55.639 373.594 C 55.848 373.599,56.533 374.117,58.283 375.593 C 58.549 375.817,59.054 376.000,59.407 376.000 C 59.759 376.000,59.936 376.180,59.800 376.400 C 59.664 376.620,59.816 376.800,60.139 376.800 C 60.461 376.800,61.416 377.136,62.262 377.548 C 64.459 378.616,66.462 379.200,67.928 379.200 C 68.628 379.200,69.200 379.380,69.200 379.600 C 69.200 380.110,77.482 380.141,77.667 379.632 C 77.740 379.429,78.790 379.217,80.000 379.159 C 81.210 379.102,82.294 378.918,82.409 378.751 C 82.524 378.583,83.469 378.402,84.509 378.348 C 85.549 378.295,86.400 378.104,86.400 377.925 C 86.400 377.746,87.210 377.600,88.200 377.600 C 89.190 377.600,90.000 377.420,90.000 377.200 C 90.000 376.980,90.900 376.800,92.000 376.800 C 93.100 376.800,94.000 376.620,94.000 376.400 C 94.000 376.180,94.990 376.000,96.200 376.000 C 97.410 376.000,98.400 375.820,98.400 375.600 C 98.400 375.380,99.270 375.200,100.333 375.200 C 101.397 375.200,102.389 375.077,102.539 374.927 C 102.689 374.777,103.519 374.665,104.382 374.678 C 105.246 374.690,106.030 374.498,106.125 374.250 C 106.222 373.999,107.188 373.800,108.311 373.800 C 109.418 373.800,110.240 373.665,110.138 373.500 C 110.036 373.335,110.683 373.170,111.576 373.133 C 112.469 373.097,113.515 373.052,113.900 373.033 C 114.285 373.015,114.741 372.781,114.913 372.513 C 115.106 372.211,115.678 372.116,116.412 372.262 C 117.147 372.409,117.856 372.290,118.276 371.950 C 118.735 371.577,118.857 371.561,118.653 371.900 C 118.257 372.559,118.814 372.516,119.739 371.815 C 120.145 371.507,120.696 371.339,120.964 371.441 C 121.231 371.544,121.709 371.127,122.025 370.514 C 122.341 369.901,123.095 368.923,123.700 368.340 C 124.305 367.756,124.800 366.991,124.800 366.640 C 124.800 366.288,124.845 365.996,124.900 365.992 C 135.512 365.096,147.565 364.199,153.494 363.864 C 154.645 363.799,155.698 363.635,155.833 363.500 C 155.968 363.366,156.360 363.363,156.705 363.496 C 157.070 363.636,157.228 363.569,157.083 363.335 C 156.947 363.114,157.097 362.933,157.418 362.933 C 157.738 362.933,158.000 363.069,158.000 363.234 C 158.000 363.400,158.596 363.371,159.325 363.170 C 162.712 362.235,164.416 362.077,164.306 362.709 C 164.248 363.043,164.450 363.404,164.756 363.510 C 165.061 363.617,165.212 363.543,165.091 363.347 C 164.675 362.674,165.844 361.662,167.190 361.531 C 167.932 361.459,168.612 361.175,168.703 360.900 C 168.807 360.583,168.635 360.488,168.233 360.643 C 167.885 360.776,167.600 360.710,167.600 360.495 C 167.600 360.281,166.925 360.000,166.100 359.870 C 165.275 359.741,163.405 359.451,161.946 359.226 C 160.486 359.001,154.456 358.635,148.546 358.413 C 142.635 358.192,134.920 357.827,131.400 357.604 C 116.186 356.637,94.270 355.863,64.236 355.231 C 49.216 354.915,47.027 354.791,46.716 354.235 C 46.173 353.265,45.556 353.479,45.705 354.585 M207.400 354.400 L 206.600 354.744 207.400 354.766 C 207.840 354.778,208.470 354.613,208.800 354.400 C 209.595 353.886,208.596 353.886,207.400 354.400 M121.512 370.465 C 121.426 370.721,121.041 370.976,120.656 371.033 C 120.093 371.116,120.048 371.024,120.427 370.568 C 120.994 369.884,121.729 369.814,121.512 370.465 "
              stroke="none" fill="#9ee5a5" fill-rule="evenodd"></path>
        <path id="path4"
              d="M345.607 27.903 C 345.617 28.344,347.600 30.146,347.600 29.714 C 347.600 29.511,347.150 28.953,346.600 28.475 C 346.050 27.997,345.603 27.739,345.607 27.903 M350.014 33.524 C 350.006 33.812,349.839 33.948,349.642 33.826 C 349.445 33.704,349.183 33.868,349.059 34.189 C 348.936 34.511,349.035 34.898,349.279 35.049 C 349.533 35.205,349.612 35.143,349.464 34.904 C 349.321 34.673,349.452 34.389,349.753 34.273 C 350.150 34.121,350.268 34.359,350.180 35.131 C 349.995 36.750,349.548 38.000,349.153 38.000 C 348.959 38.000,348.800 38.320,348.800 38.712 C 348.800 39.103,348.440 39.683,348.000 40.000 C 347.560 40.317,347.200 40.767,347.200 41.000 C 347.200 41.233,346.840 41.683,346.400 42.000 C 345.960 42.317,345.600 42.857,345.600 43.200 C 345.600 43.543,345.240 44.083,344.800 44.400 C 343.337 45.454,343.771 46.881,345.895 48.001 C 348.404 49.324,353.967 54.865,356.078 58.145 C 356.231 58.382,356.494 58.439,356.663 58.270 C 356.832 58.102,356.752 57.614,356.485 57.187 C 356.218 56.760,356.000 55.613,356.000 54.639 C 356.000 53.664,355.821 52.807,355.603 52.733 C 355.225 52.606,354.987 51.224,354.529 46.499 C 354.417 45.344,354.163 44.500,353.963 44.623 C 353.616 44.837,353.441 43.657,353.527 41.681 C 353.548 41.176,353.336 40.674,353.055 40.566 C 352.739 40.444,352.610 39.916,352.717 39.185 C 352.847 38.298,352.732 38.000,352.258 38.000 C 351.831 38.000,351.709 37.783,351.882 37.331 C 352.076 36.825,351.976 36.723,351.474 36.916 C 350.757 37.191,350.705 36.449,351.400 35.862 C 351.633 35.666,351.507 35.619,351.100 35.750 C 350.395 35.976,350.079 35.382,350.771 35.133 C 350.975 35.060,350.892 34.550,350.585 34.000 C 350.279 33.450,350.022 33.236,350.014 33.524 M114.868 70.300 C 150.435 70.356,208.755 70.356,244.468 70.300 C 280.180 70.244,251.080 70.198,179.800 70.198 C 108.520 70.198,79.300 70.244,114.868 70.300 M46.600 70.800 C 46.096 71.017,46.022 71.144,46.400 71.144 C 46.730 71.144,47.360 70.989,47.800 70.800 C 48.304 70.583,48.378 70.456,48.000 70.456 C 47.670 70.456,47.040 70.611,46.600 70.800 M318.400 72.924 C 318.400 73.017,319.165 73.598,320.100 74.215 C 321.035 74.832,321.589 75.080,321.331 74.768 C 320.834 74.167,318.400 72.636,318.400 72.924 M37.492 75.621 C 36.245 76.733,34.842 78.218,34.375 78.921 C 33.774 79.825,33.987 79.682,35.099 78.436 C 35.965 77.466,37.466 75.987,38.436 75.148 C 39.406 74.310,40.101 73.619,39.980 73.612 C 39.859 73.605,38.739 74.510,37.492 75.621 M325.404 79.400 C 327.007 81.626,327.450 82.039,326.557 80.473 C 326.141 79.743,325.452 78.843,325.026 78.473 C 324.576 78.082,324.734 78.469,325.404 79.400 M359.495 80.533 C 359.333 80.936,359.200 136.260,359.200 203.475 L 359.200 325.684 360.900 325.417 C 361.835 325.270,364.544 325.087,366.921 325.010 C 369.297 324.933,371.547 324.738,371.921 324.578 C 372.294 324.417,373.455 324.132,374.500 323.943 C 375.545 323.754,377.255 323.427,378.300 323.215 C 379.345 323.003,380.787 322.713,381.505 322.569 C 382.223 322.425,382.908 322.149,383.029 321.954 C 383.149 321.759,383.597 321.600,384.024 321.600 C 384.451 321.600,384.800 321.420,384.800 321.200 C 384.800 320.980,385.160 320.800,385.600 320.800 C 386.040 320.800,386.400 320.664,386.400 320.498 C 386.400 320.331,386.985 319.944,387.700 319.636 C 388.415 319.329,389.851 318.231,390.890 317.196 C 391.930 316.161,392.875 315.408,392.990 315.523 C 393.106 315.639,393.200 315.509,393.200 315.235 C 393.200 314.961,393.920 314.046,394.800 313.200 C 395.680 312.354,396.400 311.379,396.400 311.031 C 396.400 310.684,396.580 310.400,396.800 310.400 C 397.020 310.400,397.200 310.040,397.200 309.600 C 397.200 309.160,397.380 308.800,397.600 308.800 C 397.820 308.800,398.000 308.440,398.000 308.000 C 398.000 307.560,398.180 307.200,398.400 307.200 C 398.620 307.200,398.800 306.855,398.800 306.433 C 398.800 306.012,399.014 305.595,399.275 305.508 C 399.944 305.285,400.191 292.351,399.605 288.200 C 399.357 286.440,399.057 284.145,398.939 283.100 C 398.820 282.055,398.560 281.200,398.361 281.200 C 398.163 281.200,398.000 280.315,398.000 279.233 C 398.000 278.152,397.830 277.207,397.622 277.133 C 397.415 277.060,397.204 275.965,397.154 274.700 C 397.104 273.435,396.914 272.400,396.732 272.400 C 396.549 272.400,396.400 271.601,396.400 270.624 C 396.400 269.647,396.220 268.736,396.000 268.600 C 395.780 268.464,395.600 267.463,395.600 266.376 C 395.600 265.289,395.420 264.400,395.200 264.400 C 394.980 264.400,394.800 263.511,394.800 262.424 C 394.800 261.337,394.620 260.336,394.400 260.200 C 394.180 260.064,394.000 259.063,394.000 257.976 C 394.000 256.889,393.820 256.000,393.600 256.000 C 393.380 256.000,393.200 255.100,393.200 254.000 C 393.200 252.900,393.020 252.000,392.800 252.000 C 392.580 252.000,392.400 251.130,392.400 250.067 C 392.400 249.003,392.265 247.999,392.100 247.835 C 391.935 247.671,391.584 245.886,391.320 243.869 C 391.055 241.851,390.650 239.165,390.420 237.900 C 390.189 236.635,389.810 234.565,389.578 233.300 C 389.347 232.035,389.059 230.145,388.940 229.100 C 388.820 228.055,388.560 227.200,388.361 227.200 C 388.163 227.200,388.000 226.311,388.000 225.224 C 388.000 224.137,387.820 223.136,387.600 223.000 C 387.380 222.864,387.200 221.874,387.200 220.800 C 387.200 219.726,387.020 218.736,386.800 218.600 C 386.580 218.464,386.400 217.564,386.400 216.600 C 386.400 215.636,386.220 214.736,386.000 214.600 C 385.780 214.464,385.600 213.474,385.600 212.400 C 385.600 211.326,385.420 210.336,385.200 210.200 C 384.980 210.064,384.800 209.164,384.800 208.200 C 384.800 207.236,384.620 206.336,384.400 206.200 C 384.180 206.064,384.000 205.063,384.000 203.976 C 384.000 202.889,383.820 202.000,383.600 202.000 C 383.380 202.000,383.200 201.100,383.200 200.000 C 383.200 198.900,383.020 198.000,382.800 198.000 C 382.580 198.000,382.400 197.022,382.400 195.827 C 382.400 194.006,382.271 193.613,381.601 193.400 C 381.161 193.261,380.722 192.754,380.625 192.273 C 380.528 191.793,380.337 190.860,380.202 190.200 C 380.066 189.540,379.771 188.010,379.546 186.800 C 379.091 184.356,378.609 181.858,377.984 178.700 C 377.292 175.204,376.780 172.287,376.562 170.600 C 376.448 169.720,376.195 168.640,376.000 168.200 C 375.805 167.760,375.554 166.680,375.443 165.800 C 375.332 164.920,375.044 163.210,374.805 162.000 C 374.565 160.790,374.203 158.900,374.000 157.800 C 373.797 156.700,373.459 154.900,373.248 153.800 C 373.036 152.700,372.680 150.810,372.454 149.600 C 372.229 148.390,371.939 146.860,371.809 146.200 C 371.679 145.540,371.410 144.100,371.211 143.000 C 370.725 140.319,370.037 136.643,369.566 134.200 C 369.240 132.514,368.371 127.698,365.576 112.100 C 364.873 108.172,364.401 105.604,363.960 103.300 C 363.529 101.051,363.355 100.101,362.400 94.800 C 362.142 93.370,361.782 91.390,361.600 90.400 C 360.663 85.312,360.299 83.238,360.057 81.600 C 359.861 80.276,359.712 79.994,359.495 80.533 M32.600 81.600 C 32.259 82.260,32.069 82.800,32.179 82.800 C 32.289 82.800,32.659 82.260,33.000 81.600 C 33.341 80.940,33.531 80.400,33.421 80.400 C 33.311 80.400,32.941 80.940,32.600 81.600 M329.596 168.518 L 329.400 247.635 327.002 244.718 C 325.683 243.113,323.439 240.360,322.016 238.600 C 320.594 236.840,319.195 235.159,318.909 234.865 C 318.622 234.571,317.897 233.671,317.296 232.865 C 316.696 232.059,316.100 231.310,315.972 231.200 C 315.843 231.090,312.804 227.400,309.216 223.000 C 305.629 218.600,302.102 214.280,301.379 213.400 C 295.826 206.645,293.320 203.587,292.246 202.253 C 291.561 201.402,290.819 200.502,290.598 200.253 C 290.377 200.004,289.387 198.813,288.398 197.606 C 287.409 196.400,286.297 195.050,285.927 194.606 C 285.557 194.163,283.424 191.550,281.188 188.800 C 278.951 186.050,276.733 183.348,276.260 182.796 C 275.787 182.244,274.592 180.804,273.605 179.596 C 272.619 178.388,271.708 177.310,271.582 177.200 C 271.457 177.090,271.094 176.623,270.777 176.163 C 270.460 175.702,269.480 174.462,268.600 173.405 C 267.153 171.669,266.071 170.364,260.647 163.810 C 255.035 157.029,248.697 152.481,243.908 151.796 C 242.830 151.642,242.907 151.712,244.345 152.192 C 247.445 153.228,251.741 155.555,254.119 157.486 C 256.531 159.444,258.037 161.178,268.816 174.400 C 271.057 177.150,273.636 180.281,274.546 181.357 C 275.456 182.434,276.460 183.694,276.777 184.157 C 277.094 184.621,277.457 185.090,277.582 185.200 C 277.708 185.310,278.619 186.387,279.605 187.594 C 280.592 188.800,281.703 190.150,282.073 190.594 C 282.443 191.037,284.576 193.650,286.812 196.400 C 289.049 199.150,291.267 201.853,291.740 202.406 C 292.213 202.959,293.092 204.068,293.694 204.871 C 294.296 205.674,295.025 206.571,295.314 206.865 C 295.603 207.159,297.258 209.200,298.992 211.400 C 300.726 213.600,302.697 216.047,303.372 216.837 C 304.734 218.431,305.176 218.980,307.206 221.600 C 307.972 222.589,308.875 223.669,309.211 224.000 C 309.548 224.330,310.443 225.410,311.201 226.400 C 311.959 227.390,312.682 228.290,312.808 228.400 C 312.934 228.510,313.921 229.770,315.000 231.200 C 316.079 232.630,317.070 233.890,317.201 234.000 C 317.331 234.110,317.871 234.830,318.400 235.600 C 318.929 236.370,319.641 237.272,319.981 237.604 C 321.943 239.520,321.715 242.400,319.600 242.400 C 319.356 242.400,318.715 242.876,316.917 244.393 C 316.651 244.617,316.232 244.800,315.986 244.800 C 315.739 244.800,314.846 245.520,314.000 246.400 C 313.154 247.280,312.245 248.000,311.978 248.000 C 311.452 248.000,310.000 249.512,310.000 250.061 C 310.000 250.248,309.712 250.400,309.360 250.400 C 309.009 250.400,308.217 250.940,307.600 251.600 C 306.983 252.260,306.267 252.800,306.008 252.800 C 305.749 252.800,304.846 253.520,304.000 254.400 C 303.154 255.280,302.251 256.000,301.992 256.000 C 301.733 256.000,301.017 256.540,300.400 257.200 C 299.783 257.860,299.073 258.400,298.821 258.400 C 298.570 258.400,297.914 258.850,297.364 259.400 C 296.814 259.950,296.078 260.400,295.729 260.400 C 295.086 260.400,293.600 261.839,293.600 262.461 C 293.600 262.648,293.330 262.800,293.000 262.800 C 292.670 262.800,292.400 262.980,292.400 263.200 C 292.400 263.420,292.202 263.600,291.960 263.600 C 291.719 263.600,291.017 264.140,290.400 264.800 C 289.783 265.460,289.063 266.000,288.800 266.000 C 288.537 266.000,287.817 266.540,287.200 267.200 C 286.583 267.860,285.867 268.400,285.608 268.400 C 285.349 268.400,284.446 269.120,283.600 270.000 C 282.754 270.880,281.851 271.600,281.592 271.600 C 281.333 271.600,280.617 272.140,280.000 272.800 C 279.383 273.460,278.662 274.000,278.397 274.000 C 278.132 274.000,277.561 274.450,277.129 275.000 C 276.696 275.550,276.145 276.000,275.905 276.000 C 275.664 276.000,275.182 276.266,274.834 276.591 C 274.485 276.916,273.713 277.636,273.118 278.191 C 272.523 278.746,271.830 279.200,271.579 279.200 C 271.327 279.200,270.617 279.740,270.000 280.400 C 269.383 281.060,268.663 281.600,268.400 281.600 C 268.137 281.600,267.417 282.140,266.800 282.800 C 266.183 283.460,265.463 284.000,265.200 284.000 C 264.937 284.000,264.217 284.540,263.600 285.200 C 262.983 285.860,262.231 286.400,261.928 286.400 C 261.625 286.400,261.112 286.777,260.788 287.237 C 259.666 288.835,258.904 289.600,258.435 289.600 C 258.176 289.600,257.514 290.050,256.964 290.600 C 256.414 291.150,255.811 291.600,255.624 291.600 C 255.437 291.600,254.707 292.140,254.000 292.800 C 253.293 293.460,252.450 294.000,252.126 294.000 C 251.802 294.000,250.846 294.720,250.000 295.600 C 249.154 296.480,248.251 297.200,247.992 297.200 C 247.733 297.200,247.017 297.740,246.400 298.400 C 245.783 299.060,244.991 299.600,244.640 299.600 C 244.288 299.600,244.000 299.752,244.000 299.939 C 244.000 300.488,242.548 302.000,242.022 302.000 C 241.755 302.000,240.846 302.720,240.000 303.600 C 239.154 304.480,238.251 305.200,237.992 305.200 C 237.733 305.200,237.017 305.740,236.400 306.400 C 235.783 307.060,235.057 307.600,234.786 307.600 C 234.516 307.600,234.003 307.933,233.647 308.341 C 233.291 308.748,232.372 309.405,231.605 309.800 C 230.838 310.195,229.731 311.032,229.145 311.659 C 228.558 312.287,227.953 312.800,227.800 312.800 C 227.647 312.800,227.017 313.340,226.400 314.000 C 225.783 314.660,225.063 315.200,224.800 315.200 C 224.537 315.200,223.817 315.740,223.200 316.400 C 222.583 317.060,221.867 317.600,221.608 317.600 C 221.349 317.600,220.446 318.320,219.600 319.200 C 218.754 320.080,217.851 320.800,217.592 320.800 C 217.333 320.800,216.617 321.340,216.000 322.000 C 215.383 322.660,214.657 323.200,214.386 323.200 C 214.116 323.200,213.603 323.532,213.247 323.937 C 212.049 325.303,210.882 325.600,206.526 325.649 C 204.147 325.676,200.310 325.826,198.000 325.982 C 194.158 326.242,298.589 326.733,307.800 326.498 C 317.915 326.241,325.087 321.081,329.062 311.200 C 329.760 309.464,330.344 165.732,329.901 104.600 C 329.841 96.240,329.703 125.003,329.596 168.518 M29.699 179.900 C 29.640 233.126,29.747 269.200,29.963 269.200 C 30.276 269.200,31.211 268.162,34.463 264.206 C 37.065 261.040,43.848 252.814,46.182 249.995 C 49.912 245.489,50.134 245.200,49.883 245.200 C 49.766 245.200,48.440 246.685,46.938 248.500 C 45.436 250.315,44.025 251.996,43.803 252.237 C 43.582 252.477,42.950 253.270,42.400 254.000 C 41.850 254.730,41.213 255.523,40.984 255.763 C 40.756 256.004,39.326 257.730,37.807 259.600 C 36.288 261.470,34.946 263.090,34.823 263.200 C 34.700 263.310,33.917 264.251,33.081 265.290 C 29.865 269.293,30.224 279.279,29.999 179.571 L 29.797 90.600 29.699 179.900 M102.939 92.306 C 102.686 92.468,104.884 92.600,107.825 92.600 C 110.766 92.600,112.864 92.478,112.486 92.328 C 111.552 91.958,103.514 91.940,102.939 92.306 M99.200 93.218 C 98.762 93.515,98.924 93.552,99.800 93.356 C 101.271 93.027,101.590 92.798,100.567 92.806 C 100.145 92.809,99.530 92.995,99.200 93.218 M114.433 92.944 C 114.525 93.023,115.140 93.208,115.800 93.356 C 116.676 93.552,116.838 93.515,116.400 93.218 C 115.860 92.853,114.032 92.598,114.433 92.944 M90.326 97.161 C 89.319 97.799,88.379 98.511,88.236 98.742 C 88.026 99.081,91.773 96.742,92.367 96.163 C 92.850 95.691,91.948 96.132,90.326 97.161 M84.987 101.700 L 82.600 104.200 85.100 101.813 C 86.475 100.499,87.600 99.374,87.600 99.313 C 87.600 99.017,87.205 99.378,84.987 101.700 M132.483 104.410 C 133.207 105.406,134.123 106.666,134.517 107.210 C 135.207 108.162,135.207 108.149,134.517 106.861 C 134.123 106.124,133.207 104.864,132.483 104.061 L 131.166 102.600 132.483 104.410 M81.798 105.202 C 81.398 105.644,81.166 106.099,81.282 106.215 C 81.397 106.330,81.790 105.969,82.155 105.412 C 82.952 104.196,82.793 104.102,81.798 105.202 M80.073 107.800 C 79.822 108.350,79.683 108.800,79.763 108.800 C 79.843 108.800,80.203 108.350,80.563 107.800 C 80.924 107.250,81.063 106.800,80.873 106.800 C 80.684 106.800,80.323 107.250,80.073 107.800 M78.672 110.619 C 77.732 112.589,77.864 112.924,78.847 111.062 C 79.293 110.216,79.587 109.454,79.501 109.367 C 79.414 109.281,79.041 109.844,78.672 110.619 M76.649 116.215 C 76.512 116.573,76.418 117.256,76.441 117.733 C 76.467 118.281,76.603 118.086,76.810 117.203 C 77.160 115.716,77.065 115.133,76.649 116.215 M138.446 117.200 C 138.465 117.530,138.624 118.250,138.800 118.800 L 139.120 119.800 139.154 118.800 C 139.173 118.250,139.013 117.530,138.800 117.200 C 138.455 116.667,138.416 116.667,138.446 117.200 M75.852 120.500 C 75.513 121.767,75.552 126.906,75.906 127.461 C 76.068 127.715,76.202 126.050,76.205 123.761 C 76.210 119.228,76.205 119.182,75.852 120.500 M138.849 128.600 C 138.816 129.040,138.696 129.850,138.583 130.400 L 138.377 131.400 138.806 130.419 C 139.042 129.879,139.161 129.069,139.072 128.619 C 138.913 127.821,138.907 127.821,138.849 128.600 M76.400 130.510 C 76.400 131.083,76.587 131.668,76.816 131.810 C 77.089 131.979,77.138 131.677,76.960 130.934 C 76.592 129.401,76.400 129.256,76.400 130.510 M135.014 139.435 C 134.641 140.004,134.427 140.561,134.539 140.672 C 134.650 140.783,135.029 140.318,135.381 139.637 C 136.159 138.133,135.944 138.015,135.014 139.435 M79.609 139.100 C 79.614 139.265,79.985 139.850,80.433 140.400 L 81.248 141.400 80.614 140.100 C 80.011 138.865,79.589 138.445,79.609 139.100 M82.595 143.600 C 83.869 145.240,88.269 149.350,89.580 150.124 C 91.306 151.144,91.097 150.703,89.286 149.504 C 88.453 148.953,86.432 147.175,84.795 145.551 C 83.158 143.928,82.167 143.050,82.595 143.600 M129.785 146.500 L 127.800 148.600 129.900 146.615 C 131.055 145.523,132.000 144.578,132.000 144.515 C 132.000 144.217,131.629 144.549,129.785 146.500 M126.200 149.337 C 125.540 149.848,124.190 150.764,123.200 151.373 C 122.210 151.982,121.729 152.372,122.132 152.240 C 123.512 151.788,128.309 148.376,127.524 148.404 C 127.456 148.407,126.860 148.827,126.200 149.337 M233.900 150.689 C 234.615 150.778,235.785 150.778,236.500 150.689 C 237.215 150.601,236.630 150.528,235.200 150.528 C 233.770 150.528,233.185 150.601,233.900 150.689 M228.400 151.200 L 227.400 151.520 228.400 151.520 C 228.950 151.520,229.850 151.376,230.400 151.200 L 231.400 150.880 230.400 150.880 C 229.850 150.880,228.950 151.024,228.400 151.200 M240.000 151.200 C 240.550 151.376,241.360 151.526,241.800 151.532 L 242.600 151.544 241.800 151.200 C 241.360 151.011,240.550 150.862,240.000 150.868 L 239.000 150.880 240.000 151.200 M223.200 152.923 C 218.195 155.114,214.991 157.540,211.200 162.007 C 209.990 163.433,208.904 164.690,208.786 164.800 C 208.668 164.910,207.411 166.440,205.993 168.200 C 203.304 171.538,196.126 180.270,194.648 182.000 C 194.179 182.550,192.626 184.440,191.198 186.200 C 189.771 187.960,188.301 189.760,187.933 190.200 C 186.301 192.150,176.865 203.597,175.600 205.162 C 174.830 206.115,174.018 207.098,173.795 207.347 C 173.572 207.596,171.774 209.780,169.800 212.200 C 167.825 214.620,164.858 218.234,163.205 220.231 C 158.154 226.334,152.348 233.411,147.478 239.400 C 145.689 241.600,144.040 243.597,143.813 243.838 C 143.586 244.078,141.974 246.013,140.232 248.138 C 136.451 252.747,137.021 252.656,134.146 249.100 C 132.857 247.505,131.711 246.110,131.599 246.000 C 131.488 245.890,130.327 244.450,129.019 242.800 C 127.711 241.150,126.535 239.710,126.404 239.600 C 126.273 239.490,124.284 237.062,121.983 234.205 C 116.424 227.302,116.826 227.792,114.050 224.527 C 111.777 221.852,108.200 218.757,106.100 217.647 C 104.534 216.820,105.124 217.435,107.300 218.899 C 110.331 220.937,112.532 223.234,117.839 229.894 C 120.428 233.142,122.652 235.890,122.783 236.000 C 122.914 236.110,123.641 237.010,124.400 238.000 C 125.159 238.990,125.883 239.890,126.009 240.000 C 126.135 240.110,126.675 240.830,127.208 241.600 C 127.742 242.370,128.494 243.345,128.881 243.766 C 129.267 244.188,130.082 245.268,130.692 246.166 C 131.301 247.065,132.033 248.046,132.318 248.346 C 132.956 249.019,132.787 249.610,131.797 250.171 C 131.382 250.407,130.342 251.230,129.487 252.000 C 128.632 252.770,127.693 253.490,127.400 253.600 C 127.107 253.710,126.141 254.475,125.252 255.300 C 124.362 256.125,123.492 256.801,123.317 256.802 C 123.143 256.803,122.425 257.343,121.722 258.002 C 121.019 258.661,120.285 259.200,120.091 259.200 C 119.898 259.200,119.317 259.650,118.800 260.200 C 118.283 260.750,117.656 261.200,117.405 261.200 C 117.155 261.200,116.432 261.740,115.800 262.400 C 115.168 263.060,114.494 263.600,114.303 263.600 C 114.113 263.600,113.381 264.139,112.678 264.798 C 111.975 265.457,111.263 265.997,111.097 265.998 C 110.825 266.000,109.170 267.346,107.773 268.700 C 107.489 268.975,107.109 269.201,106.929 269.203 C 106.748 269.204,105.880 269.916,105.000 270.783 C 104.120 271.651,103.220 272.370,103.000 272.382 C 102.780 272.394,102.025 272.943,101.322 273.602 C 100.619 274.261,99.899 274.801,99.722 274.802 C 99.545 274.803,98.825 275.343,98.122 276.002 C 97.419 276.661,96.699 277.202,96.522 277.203 C 96.345 277.205,95.537 277.835,94.727 278.603 C 93.916 279.372,93.106 280.001,92.927 280.002 C 92.747 280.003,92.025 280.543,91.322 281.202 C 90.619 281.861,89.899 282.401,89.722 282.402 C 89.545 282.403,88.825 282.943,88.122 283.602 C 87.419 284.261,86.699 284.801,86.522 284.803 C 86.345 284.804,85.480 285.516,84.600 286.383 C 83.720 287.251,82.777 287.970,82.503 287.980 C 82.230 287.991,81.782 288.360,81.507 288.800 C 81.232 289.240,80.781 289.600,80.504 289.600 C 80.227 289.600,80.000 289.780,80.000 290.000 C 80.000 290.220,79.764 290.400,79.475 290.400 C 79.186 290.400,78.432 290.940,77.800 291.600 C 77.168 292.260,76.457 292.800,76.220 292.800 C 75.983 292.800,75.452 293.250,75.039 293.800 C 74.626 294.350,74.126 294.800,73.927 294.800 C 73.527 294.800,72.687 295.436,71.683 296.500 C 71.320 296.885,70.792 297.200,70.511 297.200 C 70.230 297.200,70.000 297.380,70.000 297.600 C 70.000 297.820,69.773 298.000,69.496 298.000 C 69.219 298.000,68.768 298.360,68.493 298.800 C 68.218 299.240,67.807 299.600,67.579 299.600 C 67.351 299.600,66.438 300.275,65.548 301.100 C 64.659 301.925,63.693 302.690,63.400 302.800 C 63.107 302.910,62.141 303.675,61.252 304.500 C 60.362 305.325,59.492 306.001,59.317 306.002 C 59.143 306.003,58.425 306.543,57.722 307.202 C 57.019 307.861,56.285 308.400,56.091 308.400 C 55.898 308.400,55.317 308.850,54.800 309.400 C 54.283 309.950,53.656 310.400,53.405 310.400 C 53.155 310.400,52.432 310.940,51.800 311.600 C 51.168 312.260,50.494 312.800,50.303 312.800 C 50.113 312.800,49.381 313.339,48.678 313.998 C 47.975 314.657,47.220 315.206,47.000 315.218 C 46.780 315.230,45.880 315.949,45.000 316.817 C 44.120 317.684,43.209 318.396,42.975 318.397 C 42.741 318.399,42.032 318.940,41.400 319.600 C 40.768 320.260,39.845 320.800,39.349 320.800 C 38.853 320.800,38.336 320.980,38.200 321.200 C 38.064 321.420,38.214 321.600,38.534 321.600 C 38.853 321.600,39.217 321.868,39.343 322.195 C 39.468 322.522,40.298 323.105,41.185 323.489 C 42.073 323.874,42.800 324.326,42.800 324.494 C 42.800 324.662,43.149 324.800,43.576 324.800 C 44.003 324.800,44.464 324.980,44.600 325.200 C 44.736 325.420,45.366 325.600,46.000 325.600 C 46.634 325.600,47.264 325.780,47.400 326.000 C 47.558 326.255,52.824 326.396,61.924 326.388 L 76.200 326.375 77.485 324.688 C 78.192 323.759,79.182 322.520,79.685 321.934 C 80.804 320.629,80.779 320.660,86.192 314.000 C 88.606 311.030,90.766 308.396,90.991 308.147 C 91.216 307.898,91.964 306.998,92.654 306.147 C 93.343 305.296,96.921 300.910,100.605 296.400 C 104.289 291.890,107.864 287.504,108.551 286.653 C 109.238 285.802,109.986 284.902,110.214 284.653 C 110.442 284.404,113.319 280.870,116.608 276.800 C 123.720 267.998,123.691 268.034,124.203 267.455 C 124.424 267.205,125.111 266.370,125.730 265.600 C 126.348 264.830,127.374 263.570,128.009 262.800 C 130.113 260.247,134.679 254.508,135.244 253.705 C 135.550 253.270,136.160 252.793,136.600 252.644 C 137.040 252.495,139.830 249.380,142.800 245.723 C 145.770 242.066,150.450 236.343,153.200 233.007 C 155.950 229.670,162.160 222.112,167.000 216.212 C 171.840 210.312,179.012 201.595,182.937 196.842 C 186.862 192.089,190.664 187.480,191.386 186.600 C 192.107 185.720,195.351 181.760,198.594 177.800 C 201.837 173.840,205.166 169.790,205.991 168.800 C 206.816 167.810,208.889 165.324,210.598 163.276 C 215.066 157.919,222.654 152.426,225.630 152.394 C 225.944 152.391,226.470 152.213,226.800 152.000 C 228.162 151.120,226.128 151.641,223.200 152.923 M98.400 154.400 C 98.730 154.613,99.270 154.788,99.600 154.788 C 100.133 154.788,100.133 154.745,99.600 154.400 C 99.270 154.187,98.730 154.012,98.400 154.012 C 97.867 154.012,97.867 154.055,98.400 154.400 M115.600 154.400 C 115.067 154.745,115.067 154.788,115.600 154.788 C 115.930 154.788,116.470 154.613,116.800 154.400 C 117.333 154.055,117.333 154.012,116.800 154.012 C 116.470 154.012,115.930 154.187,115.600 154.400 M101.800 155.200 C 102.240 155.389,103.140 155.535,103.800 155.525 L 105.000 155.505 103.800 155.200 C 103.140 155.032,102.240 154.886,101.800 154.875 L 101.000 154.856 101.800 155.200 M111.400 155.200 L 110.200 155.505 111.400 155.525 C 112.060 155.535,112.960 155.389,113.400 155.200 L 114.200 154.856 113.400 154.875 C 112.960 154.886,112.060 155.032,111.400 155.200 M86.262 213.547 C 85.856 213.706,87.718 213.837,90.400 213.837 C 93.082 213.837,94.944 213.706,94.538 213.547 C 94.132 213.387,92.270 213.256,90.400 213.256 C 88.530 213.256,86.668 213.387,86.262 213.547 M82.400 214.400 C 81.636 214.894,82.458 214.894,84.000 214.400 L 85.000 214.080 84.000 214.046 C 83.450 214.027,82.730 214.187,82.400 214.400 M96.800 214.400 C 98.342 214.894,99.164 214.894,98.400 214.400 C 98.070 214.187,97.350 214.027,96.800 214.046 L 95.800 214.080 96.800 214.400 M73.753 218.237 C 70.139 220.648,66.331 224.544,61.471 230.806 C 60.540 232.005,57.406 235.804,57.187 236.000 C 56.479 236.631,50.023 244.800,50.233 244.800 C 50.371 244.800,50.871 244.306,51.342 243.702 C 52.182 242.627,58.592 234.878,65.762 226.268 C 69.206 222.133,73.092 218.728,75.900 217.385 C 76.615 217.042,77.200 216.681,77.200 216.581 C 77.200 216.108,76.284 216.548,73.753 218.237 M45.867 351.867 C 45.374 352.359,45.594 353.194,46.437 354.037 C 47.249 354.849,47.799 354.886,64.337 355.234 C 94.265 355.863,116.202 356.638,131.400 357.604 C 134.920 357.827,142.635 358.192,148.546 358.413 C 154.456 358.635,160.486 359.001,161.946 359.226 C 163.405 359.451,165.275 359.741,166.100 359.870 C 166.925 360.000,167.600 360.281,167.600 360.495 C 167.600 360.710,167.885 360.776,168.233 360.643 C 168.635 360.488,168.807 360.583,168.703 360.900 C 168.612 361.175,167.915 361.454,167.153 361.519 C 166.388 361.585,165.578 361.943,165.343 362.319 C 164.960 362.931,165.113 362.986,166.858 362.861 C 167.926 362.785,168.699 362.560,168.576 362.361 C 168.453 362.163,169.068 362.000,169.943 362.000 C 170.841 362.000,171.621 361.782,171.735 361.500 C 171.896 361.100,171.943 361.100,171.968 361.500 C 171.986 361.775,172.163 362.000,172.363 362.000 C 172.562 362.000,172.641 361.595,172.537 361.100 C 172.360 360.247,172.382 360.252,172.961 361.200 C 173.297 361.750,173.578 361.975,173.586 361.700 C 173.595 361.368,174.279 361.200,175.624 361.200 C 176.871 361.200,177.552 361.047,177.400 360.800 C 177.247 360.552,177.996 360.400,179.376 360.400 C 180.599 360.400,181.600 360.220,181.600 360.000 C 181.600 359.780,182.554 359.600,183.720 359.600 C 184.886 359.600,186.011 359.432,186.220 359.227 C 186.429 359.022,188.130 358.731,190.000 358.579 C 191.870 358.428,193.580 358.165,193.800 357.995 C 194.020 357.825,195.010 357.585,196.000 357.462 C 196.990 357.338,198.790 357.054,200.000 356.830 C 201.210 356.605,202.920 356.304,203.800 356.161 C 204.680 356.017,205.542 355.655,205.716 355.356 C 206.084 354.725,208.942 353.896,213.200 353.185 C 222.517 351.631,224.447 351.668,133.367 351.633 C 85.388 351.615,46.013 351.720,45.867 351.867 M163.200 362.282 C 162.650 362.377,161.255 362.696,160.100 362.990 C 158.945 363.284,158.000 363.391,158.000 363.229 C 158.000 363.066,157.738 362.933,157.418 362.933 C 157.097 362.933,156.947 363.114,157.083 363.335 C 157.228 363.569,157.070 363.636,156.705 363.496 C 156.360 363.363,155.968 363.366,155.833 363.500 C 155.698 363.635,154.645 363.799,153.494 363.864 C 147.565 364.199,135.512 365.096,124.900 365.992 C 124.845 365.996,124.800 366.288,124.800 366.640 C 124.800 366.991,124.305 367.761,123.700 368.350 C 122.015 369.991,120.829 372.323,122.277 371.149 C 122.737 370.776,122.857 370.760,122.653 371.100 C 122.488 371.375,122.528 371.600,122.743 371.600 C 122.958 371.600,123.206 371.381,123.296 371.113 C 123.392 370.823,124.051 370.667,124.931 370.726 C 125.742 370.781,126.804 370.612,127.291 370.351 C 127.778 370.090,128.799 369.900,129.559 369.929 C 130.319 369.958,131.134 369.825,131.370 369.634 C 131.784 369.301,133.661 368.974,137.700 368.531 C 138.745 368.417,139.600 368.160,139.600 367.961 C 139.600 367.763,140.590 367.600,141.800 367.600 C 143.010 367.600,144.000 367.420,144.000 367.200 C 144.000 366.980,144.822 366.800,145.826 366.800 C 146.831 366.800,147.975 366.627,148.369 366.416 C 148.764 366.205,149.742 365.989,150.543 365.935 C 151.344 365.881,152.000 365.693,152.000 365.518 C 152.000 365.343,152.135 365.221,152.300 365.247 C 153.597 365.452,156.404 365.130,156.200 364.800 C 156.045 364.549,156.964 364.398,158.676 364.394 C 160.583 364.390,161.220 364.271,160.800 364.000 C 160.369 363.721,160.766 363.611,162.215 363.606 C 163.941 363.601,164.238 363.485,164.290 362.800 C 164.323 362.360,164.316 362.025,164.275 362.054 C 164.234 362.084,163.750 362.187,163.200 362.282 M120.452 370.537 C 120.207 370.832,120.124 371.190,120.267 371.333 C 120.567 371.634,121.600 370.872,121.600 370.351 C 121.600 369.824,120.957 369.928,120.452 370.537 M109.200 373.600 C 108.396 373.857,108.357 373.923,109.000 373.932 C 109.440 373.938,110.160 373.789,110.600 373.600 C 111.619 373.162,110.568 373.162,109.200 373.600 "
              stroke="none" fill="#75dbbe" fill-rule="evenodd"></path>
    </g>
</svg>